<?xml version="1.0" encoding="UTF-8"?>
<svg width="318px" height="74px" viewBox="0 0 318 74" version="1.1" xmlns="http://www.w3.org/2000/svg" xmlns:xlink="http://www.w3.org/1999/xlink">
    <title>github-logo</title>
    <g id="github-logo" stroke="none" stroke-width="1" fill="none" fill-rule="evenodd">
        <g id="logo">
            <path d="M2.03683722,0.749544429 L76.7147503,0.0203066448 C77.8192671,0.00952092009 78.7233985,0.896165173 78.7341842,2.00068201 C78.7344383,2.02669711 78.7341847,2.05271468 78.7334236,2.07871989 L76.6883429,71.9558199 C76.6560295,73.0599166 75.7347871,73.9287687 74.6306903,73.8964553 C74.6140247,73.8959675 74.5973658,73.8952714 74.5807176,73.8943671 L3.78090259,70.0484769 C2.74163416,69.9920232 1.91937499,69.1479295 1.89017136,68.1075387 L0.0571539556,2.8055667 C0.0261610487,1.7014321 0.89611428,0.781229437 2.00024888,0.750236531 C2.01244263,0.749894254 2.02463925,0.749663544 2.03683722,0.749544429 Z" id="Rectangle-Copy" fill="#9DE200"></path>
            <path d="M11.3228152,9.54947585 L67.8047609,7.59025836 C68.3567137,7.57111249 68.8196807,8.00303785 68.8388265,8.55499064 C68.839627,8.5780665 68.8396279,8.60116316 68.8388295,8.62423909 L67.0141293,61.3574221 C66.9954958,61.8959247 66.5535523,62.3228403 66.0147274,62.3228403 L9.27236226,62.3228403 C8.72007751,62.3228403 8.27236226,61.875125 8.27236226,61.3228403 C8.27236226,61.3091586 8.27264305,61.2954783 8.27320444,61.2818082 L10.358324,10.5078427 C10.3797815,9.98534117 10.8001876,9.56760449 11.3228152,9.54947585 Z" id="Rectangle" fill="#FFFFFF"></path>
            <path d="M36.6259967,49.8530644 C40.9373392,49.8530644 44.2178659,49.0978886 46.4675765,47.587537 C48.7172872,46.0771855 49.8421425,43.7610722 49.8421425,40.6391972 C49.7698045,37.8931034 48.9125997,35.9130253 47.2705279,34.6989628 C45.6284561,33.4849003 43.288323,32.4804081 40.2501286,31.6854863 C37.8340406,30.9772831 36.2281379,30.3124394 35.4324203,29.690955 C34.6367027,29.0694706 34.2388439,28.1227909 34.2388439,26.8509159 C34.2388439,25.7813847 34.5571309,24.9647831 35.193705,24.4011113 C35.8302791,23.8374394 36.9659851,23.5556034 38.600823,23.5556034 C41.0603138,23.5556034 43.9610661,24.3071659 47.30308,25.8102909 C48.1856031,24.8563847 48.6268647,23.7796269 48.6268647,22.5800175 C48.6268647,21.3225956 48.0228427,20.4770878 46.8147987,20.0434941 C45.6067548,19.6099003 43.1436471,19.3931034 39.4254758,19.3931034 C35.8085777,19.3931034 32.9693126,20.2024784 30.9076807,21.8212284 C28.8460487,23.4399784 27.8152328,25.7018925 27.8152328,28.6069706 C27.8152328,30.73158 28.4409561,32.4731816 29.6924029,33.8317753 C30.9438497,35.1903691 33.0018647,36.2526738 35.866448,37.0186894 C38.5574203,37.784705 40.4888439,38.5434941 41.6607189,39.2950566 C42.8325939,40.0466191 43.4185314,41.1016972 43.4185314,42.4602909 C43.4185314,43.6165409 43.042374,44.4439824 42.2900592,44.9426152 C41.5377443,45.441248 40.2139596,45.6905644 38.318705,45.6905644 C35.4251865,45.6905644 32.3218879,44.8522831 29.0088092,43.1757206 C27.9960777,44.1151738 27.4897119,45.1919316 27.4897119,46.4059941 C27.4897119,47.7790409 28.2311761,48.6968144 29.7141043,49.1593144 C31.1970325,49.6218144 33.5009967,49.8530644 36.6259967,49.8530644 Z" id="S" fill="#056BE2" fill-rule="nonzero"></path>
        </g>
        <path d="M99.390625,60.390625 C101.942708,60.390625 104.00651,59.8014323 105.582031,58.6230469 C107.157552,57.4446615 107.945312,55.9049479 107.945312,54.0039062 C107.945312,52.8710938 107.688151,51.9075521 107.173828,51.1132812 C106.659505,50.3190104 105.871745,49.6386719 104.810547,49.0722656 C103.749349,48.5058594 102.28776,48.0175781 100.425781,47.6074219 C98.5638021,47.1972656 97.3268229,46.7903646 96.7148438,46.3867188 C96.1028646,45.9830729 95.796875,45.4166667 95.796875,44.6875 C95.796875,43.8802083 96.125651,43.2356771 96.7832031,42.7539062 C97.4407552,42.2721354 98.2903646,42.03125 99.3320312,42.03125 C100.451823,42.03125 101.35026,42.3339844 102.027344,42.9394531 C102.704427,43.5449219 103.042969,44.3033854 103.042969,45.2148438 L103.042969,45.2148438 L107.789062,45.2148438 C107.789062,43.2226562 107.011068,41.6015625 105.455078,40.3515625 C103.899089,39.1015625 101.858073,38.4765625 99.3320312,38.4765625 C96.9622396,38.4765625 95.0091146,39.0885417 93.4726562,40.3125 C91.9361979,41.5364583 91.1679688,43.0598958 91.1679688,44.8828125 C91.1679688,47.0572917 92.3528646,48.7174479 94.7226562,49.8632812 C95.8033854,50.3841146 97.1510417,50.8138021 98.765625,51.1523438 C100.380208,51.4908854 101.535807,51.8815104 102.232422,52.3242188 C102.929036,52.7669271 103.277344,53.4114583 103.277344,54.2578125 C103.277344,55.0260417 102.951823,55.6477865 102.300781,56.1230469 C101.64974,56.5983073 100.699219,56.8359375 99.4492188,56.8359375 C98.1601562,56.8359375 97.125,56.5332031 96.34375,55.9277344 C95.5625,55.3222656 95.1393229,54.4596354 95.0742188,53.3398438 L95.0742188,53.3398438 L90.4648438,53.3398438 C90.4648438,54.6028646 90.8424479,55.78125 91.5976562,56.875 C92.3528646,57.96875 93.4075521,58.828125 94.7617188,59.453125 C96.1158854,60.078125 97.6588542,60.390625 99.390625,60.390625 Z M118.746094,60.390625 C119.748698,60.390625 120.790365,60.2408854 121.871094,59.9414062 L121.871094,59.9414062 L121.871094,56.2695312 C121.311198,56.3997396 120.757812,56.4648438 120.210938,56.4648438 C119.390625,56.4648438 118.820964,56.2858073 118.501953,55.9277344 C118.182943,55.5696615 118.023438,54.9869792 118.023438,54.1796875 L118.023438,54.1796875 L118.023438,42.3828125 L121.753906,42.3828125 L121.753906,38.8671875 L118.023438,38.8671875 L118.023438,33.7304688 L113.277344,33.7304688 L113.277344,38.8671875 L109.800781,38.8671875 L109.800781,42.3828125 L113.277344,42.3828125 L113.277344,54.3554688 C113.277344,58.3789062 115.10026,60.390625 118.746094,60.390625 Z M134.683594,60.390625 C136.441406,60.390625 138.026693,60.0423177 139.439453,59.3457031 C140.852214,58.6490885 141.981771,57.6692708 142.828125,56.40625 L142.828125,56.40625 L140.269531,53.9648438 C138.902344,55.7226562 137.13151,56.6015625 134.957031,56.6015625 C133.407552,56.6015625 132.121745,56.09375 131.099609,55.078125 C130.077474,54.0625 129.494792,52.6822917 129.351562,50.9375 L129.351562,50.9375 L143.160156,50.9375 L143.160156,49.0234375 C143.160156,45.6640625 142.375651,43.0664062 140.806641,41.2304688 C139.23763,39.3945312 137.014323,38.4765625 134.136719,38.4765625 C132.326823,38.4765625 130.686198,38.9388021 129.214844,39.8632812 C127.74349,40.7877604 126.600911,42.0800781 125.787109,43.7402344 C124.973307,45.4003906 124.566406,47.2851562 124.566406,49.3945312 L124.566406,49.3945312 L124.566406,49.9804688 C124.566406,53.1315104 125.500651,55.6542969 127.369141,57.5488281 C129.23763,59.4433594 131.675781,60.390625 134.683594,60.390625 Z M138.472656,47.4609375 L129.429688,47.4609375 C129.651042,45.8333333 130.162109,44.5638021 130.962891,43.6523438 C131.763672,42.7408854 132.815104,42.2851562 134.117188,42.2851562 C135.432292,42.2851562 136.460938,42.6920573 137.203125,43.5058594 C137.945312,44.3196615 138.36849,45.5208333 138.472656,47.109375 L138.472656,47.109375 L138.472656,47.4609375 Z M151.519531,60 L151.519531,44.9609375 C152.457031,43.2291667 153.882812,42.3632812 155.796875,42.3632812 C157.111979,42.3632812 158.059245,42.6855469 158.638672,43.3300781 C159.218099,43.9746094 159.507812,44.9674479 159.507812,46.3085938 L159.507812,46.3085938 L159.507812,60 L164.253906,60 L164.253906,46.0351562 C164.175781,40.9960938 161.936198,38.4765625 157.535156,38.4765625 C154.996094,38.4765625 152.945312,39.4205729 151.382812,41.3085938 L151.382812,41.3085938 L151.246094,38.8671875 L146.773438,38.8671875 L146.773438,60 L151.519531,60 Z M177.828125,60.390625 C179.351562,60.390625 180.770833,60.0585938 182.085938,59.3945312 C183.401042,58.7304688 184.442708,57.828776 185.210938,56.6894531 C185.979167,55.5501302 186.389323,54.3229167 186.441406,53.0078125 L186.441406,53.0078125 L181.96875,53.0078125 C181.916667,54.0234375 181.5,54.8763021 180.71875,55.5664062 C179.9375,56.2565104 178.954427,56.6015625 177.769531,56.6015625 C176.207031,56.6015625 175.01237,56.0384115 174.185547,54.9121094 C173.358724,53.7858073 172.945312,52.0768229 172.945312,49.7851562 L172.945312,49.7851562 L172.945312,49.0234375 C172.958333,46.7578125 173.38151,45.0683594 174.214844,43.9550781 C175.048177,42.8417969 176.233073,42.2851562 177.769531,42.2851562 C178.967448,42.2851562 179.953776,42.6757812 180.728516,43.4570312 C181.503255,44.2382812 181.916667,45.234375 181.96875,46.4453125 L181.96875,46.4453125 L186.441406,46.4453125 C186.363281,44.0625 185.533203,42.1386719 183.951172,40.6738281 C182.369141,39.2089844 180.321615,38.4765625 177.808594,38.4765625 C174.839844,38.4765625 172.496094,39.4433594 170.777344,41.3769531 C169.058594,43.3105469 168.199219,45.8854167 168.199219,49.1015625 L168.199219,49.1015625 L168.199219,49.5898438 C168.199219,52.9622396 169.065104,55.6054688 170.796875,57.5195312 C172.528646,59.4335938 174.872396,60.390625 177.828125,60.390625 Z M192.710938,35.8789062 C193.570312,35.8789062 194.234375,35.641276 194.703125,35.1660156 C195.171875,34.6907552 195.40625,34.0950521 195.40625,33.3789062 C195.40625,32.6497396 195.171875,32.0442708 194.703125,31.5625 C194.234375,31.0807292 193.570312,30.8398438 192.710938,30.8398438 C191.851562,30.8398438 191.190755,31.0807292 190.728516,31.5625 C190.266276,32.0442708 190.035156,32.6497396 190.035156,33.3789062 C190.035156,34.0950521 190.266276,34.6907552 190.728516,35.1660156 C191.190755,35.641276 191.851562,35.8789062 192.710938,35.8789062 Z M195.074219,60 L195.074219,38.8671875 L190.328125,38.8671875 L190.328125,60 L195.074219,60 Z M205.289062,60 L205.289062,30 L200.542969,30 L200.542969,60 L205.289062,60 Z M213.414062,60.2148438 C214.299479,60.2148438 214.983073,59.9707031 215.464844,59.4824219 C215.946615,58.9941406 216.1875,58.3789062 216.1875,57.6367188 C216.1875,56.8815104 215.946615,56.2532552 215.464844,55.7519531 C214.983073,55.250651 214.299479,55 213.414062,55 C212.541667,55 211.864583,55.250651 211.382812,55.7519531 C210.901042,56.2532552 210.660156,56.8815104 210.660156,57.6367188 C210.660156,58.3919271 210.907552,59.0104167 211.402344,59.4921875 C211.897135,59.9739583 212.567708,60.2148438 213.414062,60.2148438 Z M230.933594,60.390625 C232.691406,60.390625 234.276693,60.0423177 235.689453,59.3457031 C237.102214,58.6490885 238.231771,57.6692708 239.078125,56.40625 L239.078125,56.40625 L236.519531,53.9648438 C235.152344,55.7226562 233.38151,56.6015625 231.207031,56.6015625 C229.657552,56.6015625 228.371745,56.09375 227.349609,55.078125 C226.327474,54.0625 225.744792,52.6822917 225.601562,50.9375 L225.601562,50.9375 L239.410156,50.9375 L239.410156,49.0234375 C239.410156,45.6640625 238.625651,43.0664062 237.056641,41.2304688 C235.48763,39.3945312 233.264323,38.4765625 230.386719,38.4765625 C228.576823,38.4765625 226.936198,38.9388021 225.464844,39.8632812 C223.99349,40.7877604 222.850911,42.0800781 222.037109,43.7402344 C221.223307,45.4003906 220.816406,47.2851562 220.816406,49.3945312 L220.816406,49.3945312 L220.816406,49.9804688 C220.816406,53.1315104 221.750651,55.6542969 223.619141,57.5488281 C225.48763,59.4433594 227.925781,60.390625 230.933594,60.390625 Z M234.722656,47.4609375 L225.679688,47.4609375 C225.901042,45.8333333 226.412109,44.5638021 227.212891,43.6523438 C228.013672,42.7408854 229.065104,42.2851562 230.367188,42.2851562 C231.682292,42.2851562 232.710938,42.6920573 233.453125,43.5058594 C234.195312,44.3196615 234.61849,45.5208333 234.722656,47.109375 L234.722656,47.109375 L234.722656,47.4609375 Z M247.828125,60 L247.828125,44.6875 C248.622396,43.1380208 249.970052,42.3632812 251.871094,42.3632812 C254.345052,42.3632812 255.614583,43.6067708 255.679688,46.09375 L255.679688,46.09375 L255.679688,60 L260.425781,60 L260.40625,45.5078125 C260.679688,44.5703125 261.158203,43.811849 261.841797,43.2324219 C262.525391,42.6529948 263.407552,42.3632812 264.488281,42.3632812 C265.842448,42.3632812 266.8125,42.6757812 267.398438,43.3007812 C267.984375,43.9257812 268.277344,44.9088542 268.277344,46.25 L268.277344,46.25 L268.277344,60 L273.023438,60 L273.023438,46.1132812 C272.997396,43.6002604 272.414714,41.6992188 271.275391,40.4101562 C270.136068,39.1210938 268.401042,38.4765625 266.070312,38.4765625 C263.283854,38.4765625 261.122396,39.5572917 259.585938,41.71875 C258.544271,39.5572917 256.610677,38.4765625 253.785156,38.4765625 C251.207031,38.4765625 249.175781,39.3424479 247.691406,41.0742188 L247.691406,41.0742188 L247.554688,38.8671875 L243.082031,38.8671875 L243.082031,60 L247.828125,60 Z M284.429688,60.390625 C286.617188,60.390625 288.466146,59.6028646 289.976562,58.0273438 C290.132812,58.9388021 290.315104,59.5963542 290.523438,60 L290.523438,60 L295.367188,60 L295.367188,59.6679688 C294.833333,58.5351562 294.566406,57.0182292 294.566406,55.1171875 L294.566406,55.1171875 L294.566406,45.5859375 C294.527344,43.3333333 293.772135,41.5852865 292.300781,40.3417969 C290.829427,39.0983073 288.856771,38.4765625 286.382812,38.4765625 C284.755208,38.4765625 283.280599,38.7630208 281.958984,39.3359375 C280.63737,39.9088542 279.592448,40.6998698 278.824219,41.7089844 C278.05599,42.718099 277.671875,43.8020833 277.671875,44.9609375 L277.671875,44.9609375 L282.417969,44.9609375 C282.417969,44.1276042 282.763021,43.4407552 283.453125,42.9003906 C284.143229,42.360026 285.028646,42.0898438 286.109375,42.0898438 C287.359375,42.0898438 288.290365,42.4186198 288.902344,43.0761719 C289.514323,43.733724 289.820312,44.609375 289.820312,45.703125 L289.820312,45.703125 L289.820312,47.0898438 L286.910156,47.0898438 C283.798177,47.0898438 281.405599,47.6920573 279.732422,48.8964844 C278.059245,50.1009115 277.222656,51.8294271 277.222656,54.0820312 C277.222656,55.8658854 277.893229,57.3632812 279.234375,58.5742188 C280.575521,59.7851562 282.307292,60.390625 284.429688,60.390625 Z M285.308594,56.5820312 C284.292969,56.5820312 283.482422,56.311849 282.876953,55.7714844 C282.271484,55.2311198 281.96875,54.5052083 281.96875,53.59375 C281.96875,52.4739583 282.411458,51.6080729 283.296875,50.9960938 C284.182292,50.3841146 285.503906,50.078125 287.261719,50.078125 L287.261719,50.078125 L289.820312,50.078125 L289.820312,54.0625 C289.403646,54.8307292 288.781901,55.4427083 287.955078,55.8984375 C287.128255,56.3541667 286.246094,56.5820312 285.308594,56.5820312 Z M302.222656,35.8789062 C303.082031,35.8789062 303.746094,35.641276 304.214844,35.1660156 C304.683594,34.6907552 304.917969,34.0950521 304.917969,33.3789062 C304.917969,32.6497396 304.683594,32.0442708 304.214844,31.5625 C303.746094,31.0807292 303.082031,30.8398438 302.222656,30.8398438 C301.363281,30.8398438 300.702474,31.0807292 300.240234,31.5625 C299.777995,32.0442708 299.546875,32.6497396 299.546875,33.3789062 C299.546875,34.0950521 299.777995,34.6907552 300.240234,35.1660156 C300.702474,35.641276 301.363281,35.8789062 302.222656,35.8789062 Z M304.585938,60 L304.585938,38.8671875 L299.839844,38.8671875 L299.839844,60 L304.585938,60 Z M314.800781,60 L314.800781,30 L310.054688,30 L310.054688,60 L314.800781,60 Z" id="stencil.email" fill="#37414C" fill-rule="nonzero"></path>
    </g>
</svg>