<?xml version="1.0" encoding="UTF-8"?>
<svg width="318px" height="74px" viewBox="0 0 318 74" version="1.1" xmlns="http://www.w3.org/2000/svg" xmlns:xlink="http://www.w3.org/1999/xlink">
    <title>github-logo</title>
    <g id="github-logo" stroke="none" stroke-width="1" fill="none" fill-rule="evenodd">
        <g id="logo">
            <path d="M2.03683722,0.749544429 L76.7147503,0.0203066448 C77.8192671,0.00952092009 78.7233985,0.896165173 78.7341842,2.00068201 C78.7344383,2.02669711 78.7341847,2.05271468 78.7334236,2.07871989 L76.6883429,71.9558199 C76.6560295,73.0599166 75.7347871,73.9287687 74.6306903,73.8964553 C74.6140247,73.8959675 74.5973658,73.8952714 74.5807176,73.8943671 L3.78090259,70.0484769 C2.74163416,69.9920232 1.91937499,69.1479295 1.89017136,68.1075387 L0.0571539556,2.8055667 C0.0261610487,1.7014321 0.89611428,0.781229437 2.00024888,0.750236531 C2.01244263,0.749894254 2.02463925,0.749663544 2.03683722,0.749544429 Z" id="Rectangle-Copy" fill="#9DE200"></path>
            <path d="M11.3228152,9.54947585 L67.8047609,7.59025836 C68.3567137,7.57111249 68.8196807,8.00303785 68.8388265,8.55499064 C68.839627,8.5780665 68.8396279,8.60116316 68.8388295,8.62423909 L67.0141293,61.3574221 C66.9954958,61.8959247 66.5535523,62.3228403 66.0147274,62.3228403 L9.27236226,62.3228403 C8.72007751,62.3228403 8.27236226,61.875125 8.27236226,61.3228403 C8.27236226,61.3091586 8.27264305,61.2954783 8.27320444,61.2818082 L10.358324,10.5078427 C10.3797815,9.98534117 10.8001876,9.56760449 11.3228152,9.54947585 Z" id="Rectangle" fill="#FFFFFF"></path>
            <path d="M36.6259967,49.8530644 C40.9373392,49.8530644 44.2178659,49.0978886 46.4675765,47.587537 C48.7172872,46.0771855 49.8421425,43.7610722 49.8421425,40.6391972 C49.7698045,37.8931034 48.9125997,35.9130253 47.2705279,34.6989628 C45.6284561,33.4849003 43.288323,32.4804081 40.2501286,31.6854863 C37.8340406,30.9772831 36.2281379,30.3124394 35.4324203,29.690955 C34.6367027,29.0694706 34.2388439,28.1227909 34.2388439,26.8509159 C34.2388439,25.7813847 34.5571309,24.9647831 35.193705,24.4011113 C35.8302791,23.8374394 36.9659851,23.5556034 38.600823,23.5556034 C41.0603138,23.5556034 43.9610661,24.3071659 47.30308,25.8102909 C48.1856031,24.8563847 48.6268647,23.7796269 48.6268647,22.5800175 C48.6268647,21.3225956 48.0228427,20.4770878 46.8147987,20.0434941 C45.6067548,19.6099003 43.1436471,19.3931034 39.4254758,19.3931034 C35.8085777,19.3931034 32.9693126,20.2024784 30.9076807,21.8212284 C28.8460487,23.4399784 27.8152328,25.7018925 27.8152328,28.6069706 C27.8152328,30.73158 28.4409561,32.4731816 29.6924029,33.8317753 C30.9438497,35.1903691 33.0018647,36.2526738 35.866448,37.0186894 C38.5574203,37.784705 40.4888439,38.5434941 41.6607189,39.2950566 C42.8325939,40.0466191 43.4185314,41.1016972 43.4185314,42.4602909 C43.4185314,43.6165409 43.042374,44.4439824 42.2900592,44.9426152 C41.5377443,45.441248 40.2139596,45.6905644 38.318705,45.6905644 C35.4251865,45.6905644 32.3218879,44.8522831 29.0088092,43.1757206 C27.9960777,44.1151738 27.4897119,45.1919316 27.4897119,46.4059941 C27.4897119,47.7790409 28.2311761,48.6968144 29.7141043,49.1593144 C31.1970325,49.6218144 33.5009967,49.8530644 36.6259967,49.8530644 Z" id="S" fill="#056BE2" fill-rule="nonzero"></path>
        </g>
        <text id="stencil.email" font-family="Roboto-Medium, Roboto" font-size="40" font-weight="400" fill="#37414C">
            <tspan x="89" y="60">stencil.email</tspan>
        </text>
    </g>
</svg>